<?xml version="1.0" encoding="UTF-8"?>
<svg width="752pt" height="752pt" version="1.1" viewBox="0 0 752 752" xmlns="http://www.w3.org/2000/svg">
 <g>
  <path d="m375.99 322.26c-4.125 0.003907-7.4648 3.3477-7.4688 7.4688v126.29c0.003907 4.125 3.3438 7.4648 7.4688 7.4688 1.9883 0.007813 3.8945-0.77344 5.3047-2.1758 1.4062-1.4023 2.1992-3.3047 2.2031-5.293v-126.29c-0.003906-1.9844-0.79688-3.8906-2.2031-5.293-1.4102-1.3984-3.3164-2.1836-5.3047-2.1758z"/>
  <path d="m375.99 513.09c75.625 0 137.11-61.445 137.11-137.07s-61.484-137.11-137.11-137.11c-75.625 0-137.07 61.484-137.07 137.11 0 75.625 61.445 137.07 137.07 137.07zm0-14.941c-67.543 0-122.13-54.59-122.13-122.13 0-67.543 54.59-122.17 122.13-122.17 67.543 0 122.13 54.625 122.13 122.17s-54.59 122.13-122.13 122.13z"/>
  <path d="m376 309.65c3.4336-0.003907 6.7188-1.375 9.1406-3.8047 2.418-2.4336 3.7734-5.7266 3.7578-9.1562-0.007813-7.1211-5.7773-12.891-12.898-12.898-7.1172 0.007813-12.891 5.7773-12.895 12.898-0.015625 3.4297 1.3359 6.7227 3.7578 9.1562 2.418 2.4297 5.707 3.8008 9.1367 3.8047z"/>
 </g>
</svg>
