<?xml version="1.0" encoding="UTF-8"?>
<svg width="752pt" height="752pt" version="1.1" viewBox="0 0 752 752" xmlns="http://www.w3.org/2000/svg">
 <path d="m428.43 415.78c12.645-15.297 20.27-34.949 20.27-56.355 0-48.828-39.734-88.559-88.559-88.559-48.828 0-88.559 39.734-88.559 88.559 0 48.828 39.734 88.559 88.559 88.559 20.648 0 39.641-7.1523 54.699-19.039l49.395 49.395c1.8477 1.8477 4.2617 2.793 6.6758 2.793s4.832-0.94531 6.6758-2.793c3.6953-3.6953 3.6953-9.707 0-13.402zm-137.91-56.355c0-38.406 31.258-69.617 69.617-69.617s69.617 31.258 69.617 69.617c0 38.406-31.258 69.617-69.617 69.617s-69.617-31.211-69.617-69.617z" fill="#f2e8e4"/>
</svg>
