<?xml version="1.0" encoding="UTF-8"?>
<svg width="752pt" height="752pt" version="1.1" viewBox="0 0 752 752" xmlns="http://www.w3.org/2000/svg">
 <g>
  <path d="m463.61 285.07c0.125-23.262-9.0039-45.621-25.379-62.145-16.379-16.523-38.652-25.855-61.914-25.941-23.266-0.082031-45.605 9.0859-62.102 25.492-16.492 16.406-25.785 38.699-25.828 61.961-0.042969 23.266 9.168 45.59 25.605 62.055 16.434 16.465 38.742 25.715 62.004 25.715 23.156 0.003906 45.367-9.1641 61.785-25.492 16.418-16.328 25.703-38.492 25.828-61.645zm-156.28 0c-0.125-18.238 7.0117-35.777 19.832-48.75 12.824-12.973 30.281-20.309 48.52-20.391 18.238-0.085938 35.762 7.0898 48.703 19.941 12.941 12.855 20.238 30.328 20.281 48.566 0.042969 18.238-7.1719 35.746-20.055 48.66-12.883 12.91-30.371 20.168-48.613 20.168-18.129 0-35.523-7.168-48.387-19.945-12.867-12.777-20.156-30.121-20.281-48.25z"/>
  <path d="m528.97 545.07c0-89.035-67.25-158.65-152.96-158.65-85.719 0-152.97 69.613-152.97 158.65 0 5.2305 4.2383 9.4727 9.4727 9.4727 5.2305 0 9.4688-4.2422 9.4688-9.4727 0-79.562 57.777-139.71 134.02-139.71s134.02 60.145 134.02 139.71c0 5.2305 4.2422 9.4727 9.4727 9.4727 5.2305 0 9.4727-4.2422 9.4727-9.4727z"/>
 </g>
</svg>
