<?xml version="1.0" encoding="UTF-8"?>
<svg width="752pt" height="752pt" version="1.1" viewBox="0 0 752 752" xmlns="http://www.w3.org/2000/svg">
 <path d="m208.27 234.62c-11.496 4.0625-19.73 15.027-19.73 27.914v167.73c0 16.348 13.25 29.598 29.598 29.598h19.734c5.4492 0 9.8633 4.418 9.8633 9.8672v42.355c0 13.184 15.941 19.789 25.266 10.465l59.797-59.797c1.8516-1.8516 4.3594-2.8906 6.9766-2.8906h184.22v-19.73h-184.22c-7.8516 0-15.379 3.1172-20.93 8.668l-51.375 51.375v-30.445c0-16.348-13.254-29.598-29.598-29.598h-19.734c-5.4492 0-9.8672-4.418-9.8672-9.8672zm335.45 223.55c11.496-4.0625 19.734-15.027 19.734-27.914v-167.73c0-16.348-13.254-29.598-29.598-29.598h-305.86v19.73h305.86c5.4492 0 9.8633 4.418 9.8633 9.8672z" fill="#f2e8e4" fill-rule="evenodd"/>
</svg>
