<?xml version="1.0" encoding="UTF-8"?>
<svg width="752pt" height="752pt" version="1.1" viewBox="0 0 752 752" xmlns="http://www.w3.org/2000/svg">
 <path d="m231.19 143.94h152.43c42.352 0 76.934 34.582 76.934 76.934v80.883h60.27c42.352 0 76.934 34.582 76.934 76.934v152.43c0 42.352-34.582 76.934-76.934 76.934h-152.43c-42.352 0-76.934-34.582-76.934-76.934v-80.883h-60.27c-42.34 0-76.934-34.582-76.934-76.934v-152.45c0-42.34 34.594-76.934 76.934-76.934zm229.37 189.73v39.641c0 42.34-34.582 76.934-76.934 76.934h-60.254v80.883c0 24.734 20.289 45.023 45.023 45.023h152.43c24.734 0 45.023-20.289 45.023-45.023v-152.43c0-24.734-20.289-45.023-45.023-45.023zm-76.934-157.82h-152.43c-24.734 0-45.023 20.289-45.023 45.023v152.45c0 24.734 20.289 45.023 45.023 45.023h152.43c24.734 0 45.023-20.289 45.023-45.023v-152.45c0-24.734-20.289-45.023-45.023-45.023z" fill="#f2e8e4"/>
</svg>
