<?xml version="1.0" encoding="UTF-8"?>
<svg width="752pt" height="752pt" version="1.1" viewBox="0 0 752 752" xmlns="http://www.w3.org/2000/svg">
 <g>
  <path d="m357.06 361.79h-47.359c-7.8438 0-14.207 6.3633-14.207 14.207 0 7.8477 6.3633 14.207 14.207 14.207h47.359c2.6133 0 4.7344 2.1211 4.7344 4.7383v47.359c0 7.8438 6.3633 14.207 14.207 14.207 7.8477 0 14.207-6.3633 14.207-14.207v-47.359c0-2.6172 2.1211-4.7383 4.7383-4.7383h47.359c7.8438 0 14.207-6.3594 14.207-14.207 0-7.8438-6.3633-14.207-14.207-14.207h-47.359c-2.6172 0-4.7383-2.1211-4.7383-4.7344v-47.359c0-7.8438-6.3594-14.207-14.207-14.207-7.8438 0-14.207 6.3633-14.207 14.207v47.359c0 2.6133-2.1211 4.7344-4.7344 4.7344z" fill-rule="evenodd"/>
  <path d="m376 508.61c73.234 0 132.61-59.371 132.61-132.61s-59.371-132.6-132.61-132.6-132.6 59.367-132.6 132.6 59.367 132.61 132.6 132.61zm0 28.414c-88.926 0-161.02-72.09-161.02-161.02 0-88.926 72.09-161.02 161.02-161.02 88.93 0 161.02 72.09 161.02 161.02 0 88.93-72.09 161.02-161.02 161.02z"/>
 </g>
</svg>
