<?xml version="1.0" encoding="UTF-8"?>
<svg width="752pt" height="752pt" version="1.1" viewBox="0 0 752 752" xmlns="http://www.w3.org/2000/svg">
 <g fill="#f2e8e4">
  <path d="m530.55 190.86h-309.09c-38.824 0-70.406 31.582-70.406 70.406v229.47c0 38.824 31.582 70.406 70.406 70.406h309.09c38.824 0 70.406-31.582 70.406-70.406v-229.47c0-38.824-31.582-70.406-70.406-70.406zm41.992 299.88c0 23.152-18.836 41.992-41.992 41.992h-309.09c-23.156 0-41.992-18.84-41.992-41.992v-229.47c0-23.152 18.836-41.992 41.992-41.992h309.09c23.152 0 41.992 18.836 41.992 41.992z"/>
  <path d="m520.03 404.65c-19.406-19.414-51.043-19.418-70.543 0.011718l-18.891 18.938c-8.3867 8.3633-22.035 8.3633-30.406 0.019532l-66.129-66.176c-19.449-19.449-51.086-19.453-70.527-0.003906l-61.492 61.488c-5.5508 5.5508-5.5508 14.547-0.003907 20.094 5.5469 5.5469 14.547 5.5508 20.094 0.003906l61.492-61.492c8.3672-8.3633 21.98-8.3633 30.344-0.003906l66.145 66.191c19.449 19.387 51.094 19.379 70.574-0.03125l18.891-18.938c8.3906-8.3594 22.008-8.3672 30.363-0.019531l29.926 29.926c2.7734 2.7734 6.4102 4.1641 10.047 4.1641 3.6367 0 7.2734-1.3867 10.047-4.1641 5.5508-5.5469 5.5508-14.543 0-20.09z"/>
  <path d="m426.73 348.84c25.48 0 46.207-20.727 46.207-46.207s-20.727-46.207-46.207-46.207-46.207 20.727-46.207 46.207 20.727 46.207 46.207 46.207zm0-64.004c9.8125 0 17.793 7.9844 17.793 17.793 0 9.8125-7.9844 17.793-17.793 17.793-9.8125 0-17.793-7.9844-17.793-17.793 0-9.8086 7.9844-17.793 17.793-17.793z"/>
 </g>
</svg>
