<?xml version="1.0" encoding="UTF-8"?>
<svg width="752pt" height="752pt" version="1.1" viewBox="0 0 752 752" xmlns="http://www.w3.org/2000/svg">
 <path d="m339.16 533.39c-33.219 33.219-87.332 33.219-120.55 0-33.219-33.219-33.219-87.332 0-120.55l66.973-66.977c33.219-33.219 87.332-33.219 120.55 0l0.003906 0.003906c2.7266 2.6484 4.2734 6.2812 4.3008 10.086 0.023438 3.8008-1.4727 7.457-4.1641 10.145-2.6875 2.6875-6.3398 4.1875-10.145 4.1602-3.8008-0.027344-7.4336-1.5742-10.086-4.3008-22.438-22.438-57.934-22.438-80.367 0l-66.973 66.973c-22.438 22.438-22.438 57.934 0 80.367 22.438 22.434 57.934 22.434 80.367 0l63.625-63.625v0.003906c2.6523-2.7266 6.2852-4.2734 10.086-4.3008 3.8008-0.027344 7.457 1.4727 10.145 4.1602 2.6875 2.6914 4.1875 6.3438 4.1602 10.145-0.023438 3.8047-1.5742 7.4375-4.3008 10.09zm127.25-127.25c-33.219 33.219-87.332 33.219-120.55 0h0.003906c-2.7266-2.6523-4.2734-6.2852-4.3008-10.086-0.023438-3.8047 1.4766-7.457 4.1641-10.145s6.3398-4.1875 10.145-4.1641c3.8008 0.027344 7.4336 1.5742 10.086 4.3008 22.438 22.438 57.934 22.434 80.367 0l66.977-66.973c22.438-22.438 22.438-57.934 0-80.367-22.438-22.438-57.934-22.438-80.367 0l-63.625 63.625-0.003906-0.003906c-2.6523 2.7266-6.2852 4.2773-10.086 4.3047-3.8047 0.027344-7.4609-1.4727-10.148-4.1602-2.6875-2.6914-4.1875-6.3438-4.1602-10.148 0.027344-3.8008 1.5742-7.4375 4.3008-10.086l63.625-63.625c33.219-33.219 87.332-33.219 120.55 0 33.219 33.219 33.219 87.332 0 120.55l-66.973 66.973z" fill="#f2e8e4"/>
</svg>
