<?xml version="1.0" encoding="UTF-8"?>
<svg width="752pt" height="752pt" version="1.1" viewBox="0 0 752 752" xmlns="http://www.w3.org/2000/svg">
 <path d="m407.23 148.68c-9.2578 1.3008-14.699 5.3438-19.832 12.105h-44.547c-23.367 0-42.621 19.445-42.621 43.039v96.242l-33.004-30.336c-2.8125-2.6016-6.6992-3.9844-10.508-3.7344-7.1367 0.45312-13.332 7.125-13.32 14.348v47.824h-80.508c-7.4375 0-14.207 6.8359-14.207 14.348v66.953c0 7.5117 6.7695 14.348 14.207 14.348h80.508v47.82c-0.019531 5.543 3.4531 10.941 8.4766 13.18 5.0234 2.2344 11.312 1.1836 15.352-2.5664l33.004-30.336v96.242c0 23.598 19.254 43.039 42.621 43.039h44.547c5.3242 8.2734 15.039 12.488 24.27 12.105 15.875-2.0977 30.492-7.4492 46.469-12.105h102.56c23.367 0 42.621-19.445 42.621-43.039v-344.32c0-23.598-19.254-43.039-42.621-43.039h-102.12c-16.652-4.2617-35.344-12.148-51.355-12.105zm12.137 30.637 32.855 9.5664c1.2461 0.375 2.5469 0.57812 3.8477 0.59766h104.63c8.1172 0 14.207 6.1523 14.207 14.348v344.32c0 8.1953-6.0898 14.348-14.207 14.348h-104.48c-1.3438-0.046875-2.6953 0.10938-3.9961 0.44922l-32.855 9.5625c-10.211 4.2695-10.184-5.2734-10.211-14.801v-363.45c0-9.625 0-19.191 10.211-14.945zm-76.512 10.16h38.035c-0.14844 124.28-0.14844 258.18 0 373.02h-38.035c-8.1172 0-14.207-6.1523-14.207-14.348v-122.25l42.77-39.305c5.832-5.3594 5.832-15.863 0-21.223l-42.77-39.301v-122.25c0-8.1953 6.0898-14.348 14.207-14.348zm-71.039 123.29 68.816 63.215-68.816 63.219v-29.738c0-7.5117-6.7695-14.348-14.207-14.348h-80.508v-38.258h80.508c7.4375 0 14.207-6.8359 14.207-14.348zm173.75 23.164c-17.328 0-31.672 18.176-31.672 40.051s14.34 39.902 31.672 39.902c17.328 0 31.523-18.027 31.523-39.902s-14.191-40.051-31.523-40.051zm0 32.129c3.5938 0 6.2148 3.3828 6.2148 7.9219 0 4.5352-2.6211 7.7695-6.2148 7.7695s-6.3633-3.2344-6.3633-7.7695c0-4.5352 2.7695-7.9219 6.3633-7.9219z"/>
</svg>
