<?xml version="1.0" encoding="UTF-8"?>
<svg width="752pt" height="752pt" version="1.1" viewBox="0 0 752 752" xmlns="http://www.w3.org/2000/svg">
 <path d="m524 524v29.598c0 11.777-4.6797 23.07-13.004 31.395-8.3281 8.3281-19.621 13.004-31.395 13.004h-207.19c-11.777 0-23.07-4.6758-31.395-13.004-8.3281-8.3242-13.004-19.617-13.004-31.395v-355.18c0-11.777 4.6758-23.07 13.004-31.395 8.3242-8.3281 19.617-13.004 31.395-13.004h207.19c11.773 0 23.066 4.6758 31.395 13.004 8.3242 8.3242 13.004 19.617 13.004 31.395v29.598c0 5.2852-2.8203 10.172-7.3984 12.816-4.582 2.6445-10.223 2.6445-14.801 0s-7.3984-7.5312-7.3984-12.816v-29.598c0-3.9258-1.5625-7.6914-4.3359-10.465-2.7773-2.7773-6.5391-4.3359-10.465-4.3359h-207.19c-3.9258 0-7.6914 1.5586-10.465 4.3359-2.7773 2.7734-4.3359 6.5391-4.3359 10.465v355.18c0 3.9258 1.5586 7.6914 4.3359 10.465 2.7734 2.7773 6.5391 4.3359 10.465 4.3359h207.19c3.9258 0 7.6875-1.5586 10.465-4.3359 2.7734-2.7734 4.3359-6.5391 4.3359-10.465v-29.598c0-5.2891 2.8203-10.172 7.3984-12.816 4.5781-2.6445 10.219-2.6445 14.801 0 4.5781 2.6445 7.3984 7.5273 7.3984 12.816zm69.707-158.5-88.797-88.797h-0.003906c-3.7539-3.7539-9.2227-5.2227-14.352-3.8477-5.1289 1.375-9.1328 5.3789-10.508 10.508s0.09375 10.598 3.8477 14.352l63.637 63.492h-188.84c-5.2891 0-10.176 2.8203-12.816 7.3984-2.6445 4.5781-2.6445 10.219 0 14.801 2.6406 4.5781 7.5273 7.3984 12.816 7.3984h188.84l-63.637 63.488c-2.8047 2.7812-4.3789 6.5625-4.3789 10.508s1.5742 7.7305 4.3789 10.508c2.7773 2.8008 6.5586 4.3789 10.508 4.3789 3.9453 0 7.7266-1.5781 10.504-4.3789l88.797-88.797c2.8047-2.7773 4.3789-6.5586 4.3789-10.508 0-3.9453-1.5742-7.7266-4.3789-10.508z"/>
</svg>
